<svg width="67" height="16" viewBox="0 0 67 16" fill="none" xmlns="http://www.w3.org/2000/svg">
<path d="M0.875 15V0.722656H11.8418V15H9.51758V2.71484H3.21875V15H0.875ZM17.6914 4.18945V8.53516H22.75V4.18945H25.0547V15H22.75V10.332H17.6914V15H15.3867V4.18945H17.6914ZM32.5938 10.6055V8.66211H37.6328V10.6055H32.5938ZM45.4062 0.722656H49.6543C51.4967 0.722656 52.8867 0.989583 53.8242 1.52344C54.7617 2.05729 55.2305 2.97852 55.2305 4.28711C55.2305 4.83398 55.1328 5.32878 54.9375 5.77148C54.7487 6.20768 54.472 6.56901 54.1074 6.85547C53.7428 7.13542 53.2936 7.32422 52.7598 7.42188V7.51953C53.3132 7.61719 53.8047 7.78971 54.2344 8.03711C54.6706 8.28451 55.0124 8.63932 55.2598 9.10156C55.5137 9.5638 55.6406 10.1628 55.6406 10.8984C55.6406 11.7708 55.4323 12.513 55.0156 13.125C54.6055 13.737 54.0163 14.2025 53.248 14.5215C52.4863 14.8405 51.5814 15 50.5332 15H45.4062V0.722656ZM47.75 6.61133H49.9961C51.0573 6.61133 51.793 6.4388 52.2031 6.09375C52.6133 5.7487 52.8184 5.24414 52.8184 4.58008C52.8184 3.90299 52.5742 3.41471 52.0859 3.11523C51.6042 2.81576 50.8359 2.66602 49.7812 2.66602H47.75V6.61133ZM47.75 8.50586V13.0371H50.2207C51.3145 13.0371 52.0827 12.8255 52.5254 12.4023C52.9681 11.9792 53.1895 11.4062 53.1895 10.6836C53.1895 10.2409 53.0885 9.85677 52.8867 9.53125C52.6914 9.20573 52.3691 8.95508 51.9199 8.7793C51.4707 8.59701 50.8652 8.50586 50.1035 8.50586H47.75ZM62.7109 15.1953C61.6888 15.1953 60.8034 14.9967 60.0547 14.5996C59.306 14.2025 58.7298 13.5938 58.3262 12.7734C57.9225 11.9531 57.7207 10.9115 57.7207 9.64844C57.7207 8.33333 57.9421 7.25911 58.3848 6.42578C58.8275 5.59245 59.4395 4.97721 60.2207 4.58008C61.0085 4.18294 61.9102 3.98438 62.9258 3.98438C63.5703 3.98438 64.153 4.04948 64.6738 4.17969C65.2012 4.30339 65.6471 4.45638 66.0117 4.63867L65.3281 6.47461C64.931 6.31185 64.5241 6.17513 64.1074 6.06445C63.6908 5.95378 63.2904 5.89844 62.9062 5.89844C62.2747 5.89844 61.7474 6.03841 61.3242 6.31836C60.9076 6.59831 60.5951 7.01497 60.3867 7.56836C60.1849 8.12174 60.084 8.80859 60.084 9.62891C60.084 10.4232 60.1882 11.0938 60.3965 11.6406C60.6048 12.181 60.9141 12.5911 61.3242 12.8711C61.7344 13.1445 62.2389 13.2812 62.8379 13.2812C63.4303 13.2812 63.9609 13.2096 64.4297 13.0664C64.8984 12.9232 65.3411 12.7376 65.7578 12.5098V14.502C65.3477 14.7363 64.9082 14.9089 64.4395 15.0195C63.9707 15.1367 63.3945 15.1953 62.7109 15.1953Z" fill="#1E92E7"/>
</svg>
